# xmcd CD database file
# Copyright (C) 1995 Ti Kan
#
# Track frame offsets:
#	225
#	13198
#	25940
#	38703
#	54743
#	70328
#	84080
#	100990
#	114685
#	128340
#
# Disc length: 1852 seconds
#
# Revision: 1
# Processed by: cddbd v1.4b41PL1 Copyright (c) Steve Scherf et al.
# Submitted via: NotifyCDPlayer(CDDB) 1.05
#
DISCID=7b07390a
DTITLE=B.B. King - Rock Me Baby
DYEAR=1900
DGENRE=
TTITLE0=Rock Me Baby
TTITLE1=Please Love Me
TTITLE2=Every Day I Have The Blues
TTITLE3=My Own Fault Darlin'
TTITLE4=Five Long Years
TTITLE5=You Upset Me Baby
TTITLE6=Blue Shadows
TTITLE7=The Woman I Love
TTITLE8=Sweet Little Angel
TTITLE9=Treat Me Right
EXTD=
EXTT0=
EXTT1=
EXTT2=
EXTT3=
EXTT4=
EXTT5=
EXTT6=
EXTT7=
EXTT8=
EXTT9=
PLAYORDER=
